<?xml version="1.0" encoding="UTF-8" standalone="no"?>
<svg
   xmlns:dc="http://purl.org/dc/elements/1.1/"
   xmlns:cc="http://creativecommons.org/ns#"
   xmlns:rdf="http://www.w3.org/1999/02/22-rdf-syntax-ns#"
   xmlns:svg="http://www.w3.org/2000/svg"
   xmlns="http://www.w3.org/2000/svg"
   xmlns:sodipodi="http://sodipodi.sourceforge.net/DTD/sodipodi-0.dtd"
   xmlns:inkscape="http://www.inkscape.org/namespaces/inkscape"
   width="357"
   height="317"
   viewBox="-245 -250 357 317"
   id="svg2"
   version="1.1"
   inkscape:version="0.91 r13725"
   sodipodi:docname="html-links.svg">
  <metadata
     id="metadata90">
    <rdf:RDF>
      <cc:Work
         rdf:about="">
        <dc:format>image/svg+xml</dc:format>
        <dc:type
           rdf:resource="http://purl.org/dc/dcmitype/StillImage" />
        <dc:title></dc:title>
      </cc:Work>
    </rdf:RDF>
  </metadata>
  <defs
     id="defs88" />
  <sodipodi:namedview
     pagecolor="#ffffff"
     bordercolor="#666666"
     borderopacity="1"
     objecttolerance="10"
     gridtolerance="10"
     guidetolerance="10"
     inkscape:pageopacity="0"
     inkscape:pageshadow="2"
     inkscape:window-width="1855"
     inkscape:window-height="1056"
     id="namedview86"
     showgrid="false"
     inkscape:zoom="2.105706"
     inkscape:cx="2.6315232"
     inkscape:cy="118.75885"
     inkscape:window-x="65"
     inkscape:window-y="24"
     inkscape:window-maximized="1"
     inkscape:current-layer="svg2" />
  <style
     id="style4">
    @font-face {
      font-family: 'PT Mono';
      font-style: normal;
      font-weight: 400;
      src: local('PT Mono'), local('PTMono-Regular'), url(http://themes.googleusercontent.com/static/fonts/ptmono/v1/jmle3kzCPnW8O7_gZGRDlQ.woff) format('woff');
    }
    .leaf {
      font-family: &quot;Georgia&quot;;
      font-size: 17px;
    }
    .wraptext, .linktext, .index {
      font-family: &quot;PT Mono&quot;;
      font-size: 14px;
    }
    .wrap {
      border-radius: 4px;
      stroke: #666;
      fill: none;
    }
    .link { stroke: #6aa; }
    .linktext, .index { fill: #6aa; }
  </style>
  <text
     style="font-size:17.00000048px;font-family:Georgia;-inkscape-font-specification:'Georgia, Normal';font-weight:normal;font-style:normal;font-stretch:normal;font-variant:normal;text-anchor:start;text-align:start;writing-mode:lr;line-height:125%;"
     id="text8"
     class="leaf"
     y="16"
     x="-167"
     sodipodi:linespacing="125%">
    <tspan
       sodipodi:role="line"
       id="tspan4263">Allez voir mon cours ...</tspan>
  </text>
  <text
     style="font-size:14px;font-family:'PT Mono'"
     id="text10"
     class="wraptext"
     y="-11"
     x="-167">p</text>
  <rect
     style="fill:none;stroke:#666666"
     id="rect12"
     ry="4"
     rx="4"
     class="wrap"
     height="61"
     width="191"
     y="-28.5"
     x="-178.5" />
  <text
     style="font-size:17.00000048px;font-family:Georgia;-inkscape-font-specification:'Georgia, Normal';font-weight:normal;font-style:normal;font-stretch:normal;font-variant:normal;text-anchor:start;text-align:start;writing-mode:lr;line-height:125%;"
     id="text14"
     class="leaf"
     y="-68.5"
     x="-167"
     sodipodi:linespacing="125%">
    <tspan
       sodipodi:role="line"
       id="tspan4261">Bonjour, je m'appelle...</tspan>
  </text>
  <text
     style="font-size:14px;font-family:'PT Mono'"
     id="text16"
     class="wraptext"
     y="-95.5"
     x="-167">p</text>
  <rect
     style="fill:none;stroke:#666666"
     id="rect18"
     ry="4"
     rx="4"
     class="wrap"
     height="61"
     width="191"
     y="-113.5"
     x="-178.5" />
  <text
     style="font-size:17.00000048px;font-family:Georgia;-inkscape-font-specification:'Georgia, Normal';font-weight:normal;font-style:normal;font-stretch:normal;font-variant:normal;text-anchor:start;text-align:start;writing-mode:lr;line-height:125%;"
     id="text20"
     class="leaf"
     y="-153.5"
     x="-167"
     sodipodi:linespacing="125%">
    <tspan
       sodipodi:role="line"
       id="tspan4257">Ma page d'accueil</tspan>
  </text>
  <text
     style="font-size:14px;font-family:'PT Mono'"
     id="text22"
     class="wraptext"
     y="-180.5"
     x="-167">h1</text>
  <rect
     style="fill:none;stroke:#666666"
     id="rect24"
     ry="4"
     rx="4"
     class="wrap"
     height="61"
     width="191"
     y="-198.5"
     x="-178.5" />
  <text
     style="font-size:14px;font-family:'PT Mono'"
     id="text26"
     class="wraptext"
     y="-209.5"
     x="-178.5">body</text>
  <rect
     style="fill:none;stroke:#666666"
     id="rect28"
     ry="4"
     rx="4"
     class="wrap"
     height="272"
     width="215"
     y="-227.5"
     x="-190.5" />
  <text
     style="font-size:14px;font-family:'PT Mono';fill:#2f5353"
     id="text30"
     class="index"
     y="-180.5"
     x="-230.5">0</text>
  <text
     style="font-size:14px;font-family:'PT Mono';fill:#2f5353"
     id="text32"
     class="index"
     y="-95.5"
     x="-230.5">1</text>
  <text
     style="font-size:14px;font-family:'PT Mono';fill:#2f5353"
     id="text34"
     class="index"
     y="-11"
     x="-230.5">2</text>
  <rect
     style="fill:none;stroke:#666666"
     id="rect36"
     ry="4"
     rx="4"
     class="wrap"
     height="209"
     width="32"
     y="-204.5"
     x="-242.5" />
  <path
     style="fill:none;stroke:#2f5353"
     inkscape:connector-curvature="0"
     id="path38"
     class="link"
     d="m -210.5,-184.5 32,0" />
  <path
     style="fill:#2f5353;stroke:none"
     inkscape:connector-curvature="0"
     id="path40"
     d="m -178.5,-184.5 -8,3 1,-3 -1,-3 z" />
  <path
     style="fill:none;stroke:#2f5353"
     inkscape:connector-curvature="0"
     id="path42"
     class="link"
     d="m -210.5,-99.5 32,0" />
  <path
     style="fill:#2f5353;stroke:none"
     inkscape:connector-curvature="0"
     id="path44"
     d="m -178.5,-99.5 -8,3 1,-3 -1,-3 z" />
  <path
     style="fill:none;stroke:#2f5353"
     inkscape:connector-curvature="0"
     id="path46"
     class="link"
     d="m -210.5,-15.5 32,0" />
  <path
     style="fill:#2f5353;stroke:none"
     inkscape:connector-curvature="0"
     id="path48"
     d="m -178.5,-15.5 -8,3 1,-3 -1,-3 z" />
  <path
     style="fill:none;stroke:#2f5353"
     inkscape:connector-curvature="0"
     id="path50"
     class="link"
     d="m -175.5,-227.5 0,-5 a 7,7 0 0 0 -7,-7 l -37,0 a 7,7 0 0 0 -7,7 l 0,28" />
  <path
     style="fill:#2f5353;stroke:none"
     inkscape:connector-curvature="0"
     id="path52"
     d="m -226.5,-204.5 -3,-8 3,1 3,-1 z" />
  <text
     style="font-size:14px;font-family:'PT Mono';fill:#2f5353"
     id="text54"
     class="linktext"
     y="-235.5"
     x="-170.5">childNodes</text>
  <path
     style="fill:none;stroke:#2f5353"
     inkscape:connector-curvature="0"
     id="path56"
     class="link"
     d="m -42.5,-227.5 0,-5 a 7,7 0 0 0 -7,-7 l -6,0 a 7,7 0 0 0 -7,7 l 0,34" />
  <path
     style="fill:#2f5353;stroke:none"
     inkscape:connector-curvature="0"
     id="path58"
     d="m -62.5,-198.5 -3,-8 3,1 3,-1 z" />
  <text
     style="font-size:14px;font-family:'PT Mono';fill:#335555"
     id="text60"
     class="linktext"
     y="-235.5"
     x="-38">firstChild</text>
  <path
     style="fill:none;stroke:#2f5353"
     inkscape:connector-curvature="0"
     id="path62"
     class="link"
     d="m -42.5,44.5 0,5 a 7,7 0 0 1 -7,7 l -6,0 a 7,7 0 0 1 -7,-7 l 0,-17" />
  <path
     style="fill:#2f5353;stroke:none"
     inkscape:connector-curvature="0"
     id="path64"
     d="m -62.5,32.5 3,8 -3,-1 -3,1 z" />
  <text
     style="font-size:14px;font-family:'PT Mono';fill:#2f5353"
     id="text66"
     class="linktext"
     y="61.5"
     x="-38">lastChild</text>
  <path
     style="fill:none;stroke:#2f5353"
     inkscape:connector-curvature="0"
     id="path68"
     class="link"
     d="m -158.5,-113.5 0,-24" />
  <path
     style="fill:#2f5353;stroke:none"
     inkscape:connector-curvature="0"
     id="path70"
     d="m -158.5,-137.5 3,8 -3,-1 -3,1 z" />
  <text
     style="font-size:14px;font-family:'PT Mono';fill:#2f5353"
     id="text72"
     class="linktext"
     y="-121"
     x="-153.5">previousSibling</text>
  <path
     style="fill:none;stroke:#2f5353"
     inkscape:connector-curvature="0"
     id="path74"
     class="link"
     d="m -158.5,-52.5 0,24" />
  <path
     style="fill:#2f5353;stroke:none"
     inkscape:connector-curvature="0"
     id="path76"
     d="m -158.5,-28.5 -3,-8 3,1 3,-1 z" />
  <text
     style="font-size:14px;font-family:'PT Mono';fill:#2f5353"
     id="text78"
     class="linktext"
     y="-36"
     x="-153.5">nextSibling</text>
  <path
     style="fill:none;stroke:#2f5353"
     inkscape:connector-curvature="0"
     id="path80"
     class="link"
     d="m 12.5,-82.5 19,0 a 7,7 0 0 0 7,-7 l 0,-6 a 7,7 0 0 0 -7,-7 l 0,0 -7,0" />
  <path
     style="fill:#2f5353;stroke:none"
     inkscape:connector-curvature="0"
     id="path82"
     d="m 24.5,-102.5 8,-3 -1,3 1,3 z" />
  <text
     style="font-size:14px;font-family:'PT Mono';fill:#2f5353"
     id="text84"
     class="linktext"
     y="-66"
     x="29.5">parentNode</text>
</svg>
